<svg width="100" height="100" viewBox="0 0 100 100" fill="none" xmlns="http://www.w3.org/2000/svg">
<path d="M62.9085 57.0664C63.1752 57.008 63.4 56.8997 63.575 56.733L62.9085 57.0664Z" fill="#1B5214" stroke="white" stroke-width="1.66667" stroke-linecap="round" stroke-linejoin="round"/>
<path d="M62.9085 57.0664C63.1752 57.008 63.4 56.8997 63.575 56.733L62.9085 57.0664Z" fill="#1B5214" stroke="white" stroke-width="1.66667" stroke-linecap="round" stroke-linejoin="round"/>
<path d="M64.0999 44.1247V55.2497C64.0999 55.933 63.9248 56.433 63.5748 56.733L62.9083 57.0664C62.1083 57.2497 61.2666 56.9247 60.3582 56.0997C59.4082 55.2497 58.4583 54.4664 57.5 53.7664C57.225 53.5664 56.95 53.3664 56.6667 53.1747C56.1333 52.808 55.5831 52.458 55.0331 52.1247C54.8748 52.0247 54.7167 51.933 54.5583 51.8414C52.9 50.883 51.3083 50.1414 49.7833 49.633C45.65 48.2247 41.9915 48.4247 38.8248 50.233C38.0082 50.6997 37.2749 51.2414 36.6082 51.8664C33.7416 54.5747 32.3081 58.7997 32.3081 64.5247C32.3081 66.4747 32.5 68.4914 32.9 70.5747C33.3 72.658 33.8665 74.858 34.6082 77.1664C35.0832 78.5997 34.9416 79.5497 34.175 80.0164C33.4083 80.483 32.5165 80.158 31.5082 79.0247C29.2831 76.408 27.2416 73.583 25.3916 70.5664C23.5333 67.5497 21.8915 64.4747 20.4581 61.3414C18.1831 56.433 16.4082 51.4747 15.1332 46.4497C13.8666 41.433 13.2332 36.608 13.2332 31.9914V14.7498C13.2332 13.2331 13.6167 12.083 14.3833 11.3164C14.575 11.1247 14.775 10.958 14.9916 10.8247L15.0498 10.7997L15.4498 10.5914H15.4748C16.0332 10.3664 16.6582 10.2997 17.3582 10.3914L29.8999 12.233L36.4417 13.1914C37.1833 13.3164 37.9249 13.5914 38.6666 14.0247C39.4082 14.4497 40.1498 15.033 40.8915 15.7664L59.9667 34.9831C61.1833 36.2331 62.1748 37.6914 62.9415 39.3497C63.1248 39.7497 63.2916 40.1497 63.4332 40.5414C63.8832 41.7747 64.0999 42.9664 64.0999 44.1247Z" fill="#1B5214" stroke="white" stroke-width="1.66667" stroke-linecap="round" stroke-linejoin="round"/>
<path d="M80.7666 35.7914V46.9164C80.7666 47.9497 80.3667 48.5581 79.575 48.7331L73.0749 51.9831L63.5748 56.7331C63.9248 56.4331 64.0999 55.9331 64.0999 55.2497V44.1247C64.0999 42.9664 63.8833 41.7747 63.4333 40.5414C63.2916 40.1497 63.1248 39.7497 62.9415 39.3498C62.1748 37.6914 61.1833 36.2331 59.9667 34.9831L40.8915 15.7664C40.1498 15.0331 39.4083 14.4498 38.6666 14.0248C37.9249 13.5914 37.1833 13.3164 36.4417 13.1914L29.8999 12.2331L17.3582 10.3914C16.6582 10.2998 16.0332 10.3664 15.4749 10.5831L31.8333 2.39143L31.8833 2.36643C32.4917 2.0581 33.2082 1.94977 34.0248 2.0581L53.1083 4.85809C53.85 4.98309 54.5916 5.25809 55.3333 5.69143C56.0749 6.11643 56.8165 6.69975 57.5582 7.43308L76.6333 26.6498C77.85 27.8998 78.8415 29.3581 79.6082 31.0164C80.3832 32.6747 80.7666 34.2664 80.7666 35.7914Z" fill="#1B5214" stroke="white" stroke-width="1.66667" stroke-linecap="round" stroke-linejoin="round"/>
<path d="M69.1998 78.5747C68.4332 76.0747 67.3 73.5414 65.8083 70.9664C65.7583 70.8747 65.6998 70.783 65.6415 70.6913C62.7665 65.7996 59.3332 62.108 55.3416 59.5996C55.0832 59.4413 54.825 59.283 54.5583 59.133C52.5667 57.9913 50.7081 57.283 48.9831 57.0163C47.3665 56.758 45.8749 56.8997 44.4916 57.4247C44.3082 57.4914 44.125 57.5663 43.95 57.6496C43.7333 57.7496 43.525 57.8581 43.3166 57.9747C42.3333 58.5331 41.5 59.2664 40.8333 60.1664C39.3833 62.0831 38.6666 64.758 38.6666 68.1996C38.6666 71.0913 39.175 74.0247 40.1833 77.0081C40.95 79.2414 41.9916 81.4996 43.3166 83.7916C46.4166 89.1333 50.1583 93.0833 54.5583 95.6166C58.9583 98.1583 62.7083 98.5416 65.8083 96.775C68.8583 95.0416 70.3998 91.7166 70.4498 86.8166C70.4582 86.7333 70.4581 86.65 70.4581 86.5583C70.4581 83.9333 70.0415 81.2747 69.1998 78.5747ZM50.5916 66.5496C50.7583 66.3663 50.9582 66.2081 51.1832 66.0747C52.1082 65.5497 53.2333 65.6663 54.5583 66.433C55.35 66.8913 56.0665 67.4913 56.7165 68.2496C57.1581 68.758 57.5665 69.333 57.9415 69.983C58.7831 71.4331 59.2416 72.8664 59.3082 74.2497C59.3249 74.3914 59.3249 74.5246 59.3249 74.658C59.3249 76.1746 58.8665 77.1996 57.9415 77.733C57.0082 78.258 55.8833 78.1414 54.5583 77.3747C53.2333 76.6164 52.1082 75.4331 51.1832 73.8331C50.8166 73.1997 50.5249 72.5746 50.2999 71.9496C50.2916 71.9246 50.2831 71.8996 50.2748 71.8746C49.9498 70.9496 49.7916 70.0497 49.7916 69.1497C49.7916 67.9997 50.0583 67.133 50.5916 66.5496ZM61.3916 88.8916C60.4916 89.4666 59.4583 89.7083 58.2916 89.6166C57.1333 89.5166 55.8833 89.0833 54.5583 88.325C53.2333 87.5583 51.9917 86.55 50.825 85.3C49.6583 84.05 48.6248 82.6164 47.7248 80.9997C47.4581 80.4831 47.3499 80.008 47.4082 79.583C47.4582 79.158 47.7 78.9496 48.125 78.9496C49.125 78.983 50.175 79.1746 51.2583 79.533C52.35 79.883 53.45 80.3831 54.5583 81.0247C55.675 81.6664 56.7749 82.4414 57.8582 83.3416C58.9416 84.2416 59.9916 85.2583 61 86.3833C61.425 86.875 61.6581 87.3583 61.7165 87.85C61.7665 88.3333 61.6582 88.6833 61.3916 88.8916Z" fill="#1B5214" stroke="white" stroke-width="1.66667" stroke-linecap="round" stroke-linejoin="round"/>
<path d="M61.3914 88.8916C60.4914 89.4666 59.458 89.7083 58.2914 89.6166C57.133 89.5166 55.883 89.0833 54.558 88.325C53.233 87.5583 51.9914 86.55 50.8247 85.3C49.658 84.05 48.6245 82.6165 47.7245 80.9998C47.4579 80.4831 47.3496 80.0081 47.4079 79.5831C47.4579 79.1581 47.6997 78.9497 48.1247 78.9497C49.1247 78.983 50.1747 79.1748 51.258 79.5331C52.3497 79.8831 53.4497 80.3831 54.558 81.0248C55.6747 81.6665 56.7747 82.4415 57.858 83.3416C58.9414 84.2416 59.9914 85.2583 60.9997 86.3833C61.4247 86.875 61.6579 87.3583 61.7163 87.85C61.7663 88.3333 61.658 88.6833 61.3914 88.8916Z" fill="#1B5214" stroke="white" stroke-width="1.66667" stroke-linecap="round" stroke-linejoin="round"/>
<path d="M59.3249 74.6581C59.3249 76.1748 58.8665 77.1998 57.9415 77.7331C57.0082 78.2581 55.8834 78.1414 54.5584 77.3748C53.2334 76.6164 52.1083 75.4331 51.1833 73.8331C50.8166 73.1998 50.5249 72.5748 50.2999 71.9498C50.2916 71.9248 50.2832 71.8998 50.2749 71.8748C49.9499 70.9498 49.7917 70.0498 49.7917 69.1498C49.7917 67.9998 50.0584 67.1331 50.5917 66.5498C50.7584 66.3664 50.9583 66.2081 51.1833 66.0748C52.1083 65.5498 53.2334 65.6664 54.5584 66.4331C55.35 66.8914 56.0665 67.4914 56.7165 68.2498C57.1582 68.7581 57.5665 69.3331 57.9415 69.9831C58.7832 71.4331 59.2416 72.8664 59.3083 74.2498C59.3249 74.3914 59.3249 74.5248 59.3249 74.6581Z" fill="#1B5214" stroke="white" stroke-width="1.66667" stroke-linecap="round" stroke-linejoin="round"/>
<path d="M87.125 78.2247C87.125 83.2664 85.5752 86.675 82.4752 88.4417C81.9252 88.75 81.3585 89 80.7669 89.175L65.8085 96.775C68.8585 95.0417 70.4 91.7167 70.45 86.8167C70.4584 86.7334 70.4584 86.65 70.4584 86.5584C70.4584 83.9334 70.0417 81.2747 69.2 78.5747C68.4334 76.0747 67.3002 73.5414 65.8085 70.9664C65.7585 70.8747 65.7 70.783 65.6417 70.6914C62.7667 65.7997 59.3335 62.108 55.3419 59.5997C55.0835 59.4414 54.8252 59.283 54.5585 59.133C52.5669 57.9914 50.7084 57.283 48.9834 57.0164C47.3667 56.758 45.8751 56.8997 44.4918 57.4247C44.3084 57.4914 44.1252 57.5664 43.9502 57.6497L48.9917 55.133L55.0334 52.1247C55.5834 52.458 56.1335 52.808 56.6669 53.1747C56.9502 53.3664 57.2252 53.5664 57.5002 53.7664C58.4585 54.4664 59.4085 55.2497 60.3585 56.0997C61.2669 56.9247 62.1085 57.2497 62.9085 57.0664C63.1752 57.008 63.4 56.8997 63.575 56.733L73.0752 51.983C76.6835 54.4997 79.8169 58.0497 82.4752 62.633C85.5752 67.9747 87.125 73.1747 87.125 78.2247Z" fill="#1B5214" stroke="white" stroke-width="1.66667" stroke-linecap="round" stroke-linejoin="round"/>
<path d="M49.7831 49.633C49.3164 51.258 49.058 53.0914 48.9913 55.133L43.9498 57.6497C43.7331 57.7497 43.5248 57.858 43.3164 57.9747C42.3331 58.533 41.4998 59.2664 40.8332 60.1664C39.3832 62.083 38.6664 64.758 38.6664 68.1997C38.6664 71.0914 39.1748 74.0247 40.1831 77.008L34.1748 80.0164C34.9415 79.5497 35.0829 78.5997 34.6079 77.1664C33.8663 74.858 33.2998 72.658 32.8998 70.5747C32.4998 68.4914 32.3079 66.4747 32.3079 64.5247C32.3079 58.7997 33.7414 54.5747 36.6081 51.8664C37.2748 51.2414 38.008 50.6997 38.8247 50.233C41.9913 48.4247 45.6498 48.2247 49.7831 49.633Z" fill="#1B5214" stroke="white" stroke-width="1.66667" stroke-linecap="round" stroke-linejoin="round"/>
</svg>
