<svg width="100" height="100" viewBox="0 0 100 100" fill="none" xmlns="http://www.w3.org/2000/svg">
<path d="M48.9903 53.5098L49.4901 53.2598C49.317 53.3078 49.1441 53.3944 48.9903 53.5098Z" fill="#B52BF4" stroke="white" stroke-width="1.92308" stroke-linecap="round" stroke-linejoin="round"/>
<path d="M73.1248 71.7213C73.096 70.9425 73.0479 70.2213 72.9998 69.5578C72.9517 69.0482 72.8459 68.5482 72.6824 68.0675C72.4805 67.4713 72.2016 66.904 71.8363 66.3655C71.1728 65.3752 70.346 64.5963 69.346 64.0194C68.9998 63.8175 68.6729 63.7021 68.3748 63.6636H68.3652C68.1921 63.6444 68.0382 63.6444 67.8747 63.6732C67.7305 63.6925 67.6056 63.7405 67.4806 63.8078C67.346 63.8752 67.2306 63.9617 67.1056 64.0578C66.971 64.1828 66.846 64.3175 66.7402 64.4713C66.4037 64.9905 66.2787 65.6636 66.3652 66.4905C66.471 67.1828 66.5287 67.7886 66.5287 68.2982V70.0098C66.5287 71.279 66.4613 72.5099 66.317 73.6926C66.1824 74.8849 65.9711 76.029 65.7018 77.1444L60.3748 74.0675L58.0767 72.7405L54.4229 70.6348C54.5863 69.4617 54.7113 68.2598 54.7979 67.0386C54.8556 66.0963 54.9037 65.1444 54.9037 64.1732C54.9229 63.8848 54.9229 63.5963 54.9229 63.3078V61.2598C54.9229 60.529 54.894 59.8271 54.8363 59.1636C54.7787 58.6059 54.6633 58.0675 54.4806 57.5482C54.2787 56.9905 54.019 56.4521 53.6729 55.9232C53.0094 54.904 52.2113 54.1252 51.269 53.5867C50.6152 53.2117 50.0383 53.0963 49.519 53.2502H49.4901L48.9903 53.5098C48.3557 53.9617 48.0864 54.7309 48.2017 55.8078C48.2594 56.4809 48.2882 57.0963 48.2882 57.6636V59.4713C48.2882 60.1828 48.269 60.8944 48.2402 61.5963C48.221 62.1444 48.192 62.6828 48.1632 63.2117C48.0959 64.1636 47.9998 65.1059 47.8844 66.029C47.8556 66.2886 47.8268 66.5386 47.7884 66.7982L37.0383 60.5963L32.1921 57.7982C32.0287 56.4328 31.9037 55.0963 31.8267 53.779C31.7498 52.6636 31.7114 51.5578 31.7114 50.4809C31.7017 50.279 31.7016 50.0867 31.7016 49.8944C31.7016 48.6252 31.7402 47.3848 31.8267 46.1636C31.9037 44.9425 32.0287 43.7502 32.1921 42.5771L39.9901 47.0771C40.9324 47.6155 41.721 47.7021 42.3556 47.3463C42.9902 46.9809 43.3075 46.2598 43.3075 45.1828C43.3075 44.5675 43.2016 43.9425 42.9901 43.3175C42.8363 42.8559 42.6248 42.3944 42.3556 41.9232C41.721 40.8271 40.9324 40.0002 39.9901 39.4617L33.6921 35.8175C34.3556 33.4809 35.2113 31.3559 36.2593 29.4521C37.0189 28.0867 37.8748 26.8271 38.8363 25.6925C39.2113 25.2502 39.5959 24.8271 39.9901 24.4232C40.5478 24.7405 41.096 25.0482 41.6537 25.3367C42.2017 25.6252 42.7594 25.9617 43.3075 26.3367C44.2498 27.0098 45.0189 27.1828 45.6343 26.8752C46.2401 26.5578 46.5383 25.8559 46.5383 24.779C46.5383 23.9232 46.4036 23.0867 46.1151 22.279C46.0286 22.0194 45.9229 21.7598 45.7979 21.5002C45.2979 20.4425 44.5767 19.5867 43.644 18.9232C43.0863 18.5386 42.4806 18.1348 41.8171 17.7213C41.1537 17.3078 40.5478 16.9425 39.9901 16.6252C39.1247 16.1252 38.2787 15.6732 37.4325 15.2502H37.4229C34.4229 13.7598 31.5287 12.7982 28.7787 12.3559C28.2017 12.2694 27.6248 12.2021 27.0575 12.154C23.6056 11.8655 20.5383 12.3272 17.8556 13.5387L16.519 14.2021C13.5383 15.904 11.1729 18.5675 9.43254 22.2021C7.69216 25.8271 6.81706 30.2694 6.81706 35.5386C6.81706 40.8078 7.69216 46.2502 9.43254 51.8848C11.1729 57.529 13.5383 62.9136 16.519 68.0675C19.5094 73.2117 23.019 77.9522 27.0575 82.2887C31.0864 86.6156 35.4036 90.1059 39.9901 92.7502C44.5766 95.404 48.894 96.8942 52.9325 97.2211C56.8844 97.548 60.3461 96.8942 63.298 95.2502L63.4613 95.1636C66.3844 93.5002 68.7114 90.9041 70.4325 87.3945C70.471 87.3272 70.5094 87.2502 70.5479 87.1732C71.6729 84.8175 72.4421 82.1252 72.8364 79.0867C73.0575 77.4425 73.1632 75.6828 73.1632 73.8367C73.1632 73.2021 73.1536 72.5002 73.1248 71.7213ZM14.2786 47.4521C14.0094 46.029 13.7978 44.6348 13.6632 43.2886C13.519 41.9425 13.4517 40.6348 13.4517 39.3655C13.4517 38.0963 13.519 36.8655 13.6632 35.6732C13.7978 34.4905 14.0094 33.3367 14.2786 32.2309L25.5576 38.7405C25.4134 39.7982 25.2979 40.8848 25.221 41.9905L25.1922 42.3367C25.1057 43.5578 25.0671 44.7982 25.0671 46.0675C25.0671 47.3367 25.1057 48.6252 25.1922 49.9425C25.2691 51.2598 25.3941 52.6059 25.5576 53.9713L14.2786 47.4521ZM23.1538 68.5194C20.7211 64.7982 18.7017 60.8559 17.1056 56.6925L26.8843 62.3463C27.3843 64.9809 28.0094 67.6444 28.7498 70.3271C29.4998 73.0098 30.3748 75.7118 31.3652 78.4426C28.3267 75.5483 25.5864 72.2405 23.1538 68.5194ZM28.7498 26.0771C28.0094 27.8944 27.3843 29.8367 26.8843 31.8944L26.3844 31.6059L17.1056 26.2502C18.7017 23.9328 20.7211 22.3271 23.1538 21.4136C24.173 21.029 25.2498 20.779 26.3748 20.6732C27.0287 20.6059 27.7017 20.5867 28.3844 20.6059H28.394C29.3556 20.6444 30.3363 20.7598 31.3652 20.9713C30.3748 22.5482 29.4998 24.2502 28.7498 26.0771ZM43.7209 79.9136C42.6728 81.8175 41.4324 83.4905 39.9901 84.9521C38.5574 81.8367 37.3074 78.7213 36.2593 75.6059C35.2113 72.5002 34.3556 69.3848 33.6921 66.2694L46.2979 73.5482C45.6344 75.8944 44.7689 78.0194 43.7209 79.9136ZM61.7787 84.5099C60.394 86.0868 58.7402 87.2405 56.8267 87.9617C54.394 88.8655 51.6537 89.0194 48.6152 88.404C49.6152 86.8175 50.4806 85.1155 51.2306 83.2982C51.8171 81.8463 52.3363 80.3271 52.7787 78.7213C52.8844 78.3175 52.9901 77.8945 53.0959 77.481L61.1537 82.1348L62.8748 83.1252C62.5383 83.6155 62.1729 84.0772 61.7787 84.5099Z" fill="#B52BF4" stroke="white" stroke-width="1.92308" stroke-linecap="round" stroke-linejoin="round"/>
<path d="M69.8461 39.5676V43.3753C69.8461 43.4811 69.8461 43.5772 69.8268 43.6734C69.7788 44.0195 69.6249 44.2695 69.3557 44.4234C69.0288 44.6061 68.6345 44.5772 68.1922 44.3176L67.9326 44.1638L67.8172 44.1061L64.8749 42.4041C64.4326 42.1541 64.048 41.7407 63.7211 41.1638C63.3845 40.5868 63.2211 40.0484 63.2211 39.5484V35.7407C63.2211 35.2311 63.3845 34.885 63.7211 34.6927C64.048 34.5004 64.4326 34.5388 64.8749 34.7888L68.1922 36.7118C68.6345 36.9618 69.0288 37.3753 69.3557 37.9522C69.6922 38.5195 69.8557 39.058 69.8557 39.5676H69.8461Z" fill="#B52BF4" stroke="white" stroke-width="1.92308" stroke-linecap="round" stroke-linejoin="round"/>
<path d="M31.3653 78.4426C28.3268 75.5484 25.5865 72.2407 23.1539 68.5195C20.7212 64.7984 18.7018 60.856 17.1057 56.6925L26.8845 62.3464C27.3845 64.981 28.0095 67.6445 28.7499 70.3272C29.4999 73.0099 30.3749 75.7118 31.3653 78.4426Z" fill="#B52BF4" stroke="white" stroke-width="1.92308" stroke-linecap="round" stroke-linejoin="round"/>
<path d="M46.298 73.5483C45.6345 75.8944 44.7691 78.0194 43.7211 79.9136C42.673 81.8175 41.4326 83.4906 39.9903 84.9521C38.5576 81.8367 37.3076 78.7213 36.2595 75.606C35.2114 72.5002 34.3557 69.3848 33.6922 66.2694L46.298 73.5483Z" fill="#B52BF4" stroke="white" stroke-width="1.92308" stroke-linecap="round" stroke-linejoin="round"/>
<path d="M25.5574 38.7407C25.4132 39.7984 25.2977 40.8849 25.2208 41.9907L14.2785 47.4522C14.0093 46.0292 13.7977 44.6349 13.6631 43.2888C13.5189 41.9426 13.4516 40.6349 13.4516 39.3657C13.4516 38.0965 13.5189 36.8657 13.6631 35.6734C13.7977 34.4907 14.0093 33.3368 14.2785 32.2311L25.5574 38.7407Z" fill="#B52BF4" stroke="white" stroke-width="1.92308" stroke-linecap="round" stroke-linejoin="round"/>
<path d="M25.5576 53.9714L14.2786 47.4521L25.221 41.9906L25.1922 42.3368C25.1057 43.5579 25.0671 44.7983 25.0671 46.0675C25.0671 47.3368 25.1057 48.6252 25.1922 49.9425C25.2691 51.2598 25.3941 52.606 25.5576 53.9714Z" fill="#B52BF4" stroke="white" stroke-width="1.92308" stroke-linecap="round" stroke-linejoin="round"/>
<path d="M71.7115 36.5962C70.7403 34.9328 69.5671 33.702 68.1825 32.9039L58.2306 27.1539C56.9998 26.4328 55.9228 26.2597 55.0189 26.6347L54.7114 26.7885C54.5864 26.8558 54.4614 26.9424 54.3556 27.0289C53.6248 27.6251 53.2594 28.6155 53.2594 29.9905V41.4135C53.2594 41.5674 53.2594 41.7308 53.2787 41.8847C53.3556 43.3174 53.8364 44.7885 54.7114 46.2982C55.4517 47.5674 56.317 48.5866 57.2978 49.3558C57.5959 49.5962 57.9037 49.7982 58.2306 49.9905L67.2498 55.202L68.1825 55.7405C69.5671 56.5385 70.7403 56.6635 71.7115 56.1058C72.6826 55.5578 73.1632 54.4905 73.1632 52.9039V41.4808C73.1632 39.8943 72.6826 38.2693 71.7115 36.5962ZM69.846 43.3751C69.846 43.4808 69.846 43.577 69.8267 43.6732C69.7787 44.0193 69.6248 44.2693 69.3556 44.4232C69.0287 44.6058 68.6344 44.577 68.1921 44.3174L67.9325 44.1635L67.8171 44.1058L64.8747 42.4039C64.4324 42.1539 64.0479 41.7405 63.721 41.1635C63.3844 40.5866 63.221 40.0482 63.221 39.5482V35.7405C63.221 35.2308 63.3844 34.8847 63.721 34.6924C64.0479 34.5001 64.4324 34.5385 64.8747 34.7885L68.1921 36.7116C68.6344 36.9616 69.0287 37.3751 69.3556 37.952C69.6921 38.5193 69.8556 39.0578 69.8556 39.5674V43.3751H69.846Z" fill="#B52BF4" stroke="white" stroke-width="1.92308" stroke-linecap="round" stroke-linejoin="round"/>
<path d="M48.9905 53.5098L49.4904 53.2598C49.3173 53.3078 49.1443 53.3944 48.9905 53.5098Z" fill="#B52BF4" stroke="white" stroke-width="1.92308" stroke-linecap="round" stroke-linejoin="round"/>
<path d="M28.3845 20.6059L26.2596 21.6733L17.1057 26.2502C18.7018 23.9329 20.7212 22.3271 23.1539 21.4136C24.1731 21.029 25.25 20.779 26.375 20.6733C27.0289 20.6059 27.7018 20.5867 28.3845 20.6059Z" fill="#B52BF4" stroke="white" stroke-width="1.92308" stroke-linecap="round" stroke-linejoin="round"/>
<path d="M31.3653 20.9713C30.3749 22.5483 29.4999 24.2502 28.7499 26.0771C28.0095 27.8944 27.3845 29.8367 26.8845 31.8944L26.3846 31.606L17.1057 26.2502L26.2596 21.6733L28.3845 20.606H28.3941C29.3557 20.6444 30.3365 20.7598 31.3653 20.9713Z" fill="#B52BF4" stroke="white" stroke-width="1.92308" stroke-linecap="round" stroke-linejoin="round"/>
<path d="M65.7691 15.1636C65.7691 16.2405 65.4711 16.9425 64.8653 17.2598L54.1635 22.6059L45.6345 26.8752C46.2403 26.5579 46.5384 25.8559 46.5384 24.779C46.5384 23.9232 46.4038 23.0867 46.1153 22.279C46.0288 22.0194 45.923 21.7598 45.798 21.5002C45.298 20.4425 44.5768 19.5867 43.6441 18.9232C43.0864 18.5386 42.4807 18.1348 41.8172 17.7213C41.1538 17.3078 40.548 16.9425 39.9903 16.6252C39.1249 16.1252 38.2789 15.6732 37.4327 15.2502H37.423C34.423 13.7598 31.5289 12.7982 28.7789 12.3559C28.2019 12.2694 27.6249 12.2021 27.0576 12.154C23.6057 11.8655 20.5385 12.3271 17.8558 13.5386L35.75 4.58669C38.7404 2.88476 42.2499 2.20213 46.2884 2.53867C50.3172 2.86559 54.6345 4.35594 59.2211 7.00978C59.7788 7.32709 60.3845 7.69249 61.048 8.10595C61.7115 8.51941 62.3172 8.92325 62.8749 9.30787C63.8076 9.97131 64.5288 10.8271 65.0288 11.8848C65.5288 12.9328 65.7691 14.029 65.7691 15.1636Z" fill="#B52BF4" stroke="white" stroke-width="1.92308" stroke-linecap="round" stroke-linejoin="round"/>
<path d="M54.1635 22.6154C53.6923 23.75 53.2788 24.9424 52.923 26.202L44.6442 30.3365L33.6922 35.8174C34.3557 33.4808 35.2114 31.3558 36.2595 29.452C37.0191 28.0866 37.8749 26.8269 38.8364 25.6923C39.2114 25.25 39.5961 24.8269 39.9903 24.423C40.548 24.7404 41.0962 25.048 41.6538 25.3365C42.2019 25.625 42.7595 25.9616 43.3076 26.3366C44.2499 27.0097 45.0191 27.1828 45.6345 26.8751L54.1635 22.6154Z" fill="#B52BF4" stroke="white" stroke-width="1.92308" stroke-linecap="round" stroke-linejoin="round"/>
<path d="M55.2404 50.3847L49.5191 53.25H49.4903C49.3172 53.3077 49.1442 53.3943 48.9904 53.5097C48.3558 53.9616 48.0864 54.7308 48.2018 55.8077C48.2595 56.4808 48.2884 57.0962 48.2884 57.6635V59.4712C48.2884 60.1827 48.2691 60.8943 48.2403 61.5962C48.2211 62.1443 48.1922 62.6827 48.1634 63.2116C48.0961 64.1635 47.9999 65.1058 47.8845 66.0289C47.8557 66.2885 47.8269 66.5385 47.7885 66.7981L37.0384 60.5962L32.1922 57.7981L34.6827 56.5481L39.5576 54.1154L44.3557 51.7116L51.423 48.1827L55.2404 50.3847Z" fill="#B52BF4" stroke="white" stroke-width="1.92308" stroke-linecap="round" stroke-linejoin="round"/>
<path d="M62.8749 83.1252C62.5384 83.6155 62.173 84.0771 61.7788 84.5098C60.3941 86.0867 58.7403 87.2405 56.8268 87.9617C54.3941 88.8655 51.6538 89.0194 48.6154 88.404L59.1923 83.1155L61.1538 82.1348L62.8749 83.1252Z" fill="#B52BF4" stroke="white" stroke-width="1.92308" stroke-linecap="round" stroke-linejoin="round"/>
<path d="M61.1538 82.1346L59.1923 83.1155L48.6154 88.4039C49.6154 86.8174 50.4807 85.1154 51.2307 83.2981C51.8172 81.8462 52.3364 80.327 52.7788 78.7212C52.8845 78.3174 52.9903 77.8943 53.0961 77.4808L61.1538 82.1346Z" fill="#B52BF4" stroke="white" stroke-width="1.92308" stroke-linecap="round" stroke-linejoin="round"/>
<path d="M51.4227 48.1827L44.3555 51.7115L39.5574 54.1154L34.6824 56.5482L32.1919 57.7981C32.0285 56.4327 31.9035 55.0962 31.8265 53.7789C31.7496 52.6635 31.7112 51.5578 31.7112 50.4808C31.7015 50.2789 31.7015 50.0866 31.7015 49.8943C31.7015 48.6251 31.74 47.3847 31.8265 46.1635C31.9035 44.9424 32.0285 43.75 32.1919 42.5769L39.99 47.0769C40.9323 47.6154 41.7209 47.702 42.3555 47.3462L50.9997 43.0193C51.0093 43.3943 51.0285 43.7789 51.0573 44.1635C51.1342 45.4808 51.2592 46.8173 51.4227 48.1827Z" fill="#B52BF4" stroke="white" stroke-width="1.92308" stroke-linecap="round" stroke-linejoin="round"/>
<path d="M66.3652 66.4904C66.471 67.1827 66.5287 67.7884 66.5287 68.298V70.0097C66.5287 71.2789 66.4613 72.5097 66.317 73.6924C66.1824 74.8847 65.9711 76.0288 65.7018 77.1442L60.3748 74.0673L58.0767 72.7404L54.4229 70.6346L56.7498 69.4712L65.1055 65.2981L66.7402 64.4808C66.4037 64.9905 66.2787 65.6634 66.3652 66.4904Z" fill="#B52BF4" stroke="white" stroke-width="1.92308" stroke-linecap="round" stroke-linejoin="round"/>
<path d="M74.1249 54.9038C74.1249 55.7596 74.0768 56.5865 74.0287 57.423C73.9518 58.5384 73.8364 59.6251 73.6922 60.702L67.4808 63.8077C67.3462 63.875 67.2307 63.9616 67.1057 64.0578C66.9711 64.1828 66.8461 64.3173 66.7403 64.4711L65.1057 65.2884L56.7499 69.4712L54.423 70.6346C54.5864 69.4615 54.7114 68.2596 54.798 67.0384C54.8557 66.0961 54.9037 65.1443 54.9037 64.1731C54.923 63.8847 54.923 63.5961 54.923 63.3077V61.2596C54.923 60.5288 54.8941 59.8269 54.8364 59.1634C54.7787 58.6057 54.6634 58.0673 54.4807 57.548C54.2787 56.9904 54.0192 56.4519 53.6731 55.923C53.0096 54.9038 52.2115 54.125 51.2692 53.5865C50.6154 53.2115 50.0384 53.0962 49.5191 53.2501L55.2404 50.3846L57.298 49.3558C57.5961 49.5962 57.9038 49.7981 58.2308 49.9905L67.25 55.2019L68.1826 55.7404C69.5672 56.5384 70.7404 56.6634 71.7115 56.1057L74.1249 54.9038Z" fill="#B52BF4" stroke="white" stroke-width="1.92308" stroke-linecap="round" stroke-linejoin="round"/>
<path d="M92.3941 64.2212C92.3941 69.4905 91.5191 73.9328 89.7788 77.5578C88.0384 81.1828 85.673 83.8462 82.6922 85.5481C82.3268 85.7597 81.9519 85.952 81.5673 86.1251L63.4614 95.1635C66.3845 93.5001 68.7114 90.9039 70.4326 87.3943C70.4711 87.327 70.5095 87.2501 70.548 87.1731C71.673 84.8174 72.4422 82.1251 72.8364 79.0866C73.0576 77.4424 73.1634 75.6828 73.1634 73.8366C73.1634 73.202 73.1538 72.5001 73.1249 71.7212C73.0961 70.9424 73.048 70.2212 72.9999 69.5578C72.9518 69.0482 72.8461 68.5482 72.6826 68.0674C72.4807 67.4712 72.2018 66.9038 71.8364 66.3654C71.173 65.375 70.3461 64.5962 69.3461 64.0193C68.9999 63.8174 68.673 63.702 68.3749 63.6635H68.3653C68.1922 63.6443 68.0384 63.6443 67.8749 63.6732C67.7307 63.6924 67.6058 63.7405 67.4808 63.8078L73.6922 60.702L86.5576 54.2693L86.7212 54.1924C87.25 53.9231 87.8653 54.0001 88.5768 54.4039C89.5768 54.9808 90.4037 55.7596 91.0672 56.75C91.7307 57.7307 92.1153 58.7981 92.2307 59.9424C92.2787 60.6058 92.3268 61.327 92.3557 62.1058C92.3845 62.8847 92.3941 63.5866 92.3941 64.2212Z" fill="#B52BF4" stroke="white" stroke-width="1.92308" stroke-linecap="round" stroke-linejoin="round"/>
<path d="M53.2595 41.4134C53.2595 41.5673 53.2595 41.7308 53.2788 41.8846L50.9999 43.0192L42.3557 47.3461C42.9903 46.9808 43.3076 46.2596 43.3076 45.1827C43.3076 44.5673 43.2018 43.9423 42.9903 43.3173C42.8364 42.8557 42.6249 42.3942 42.3557 41.9231C41.7211 40.8269 40.9326 40 39.9903 39.4615L33.6922 35.8173L44.6442 30.3461L52.923 26.2019L54.3557 27.0288C53.6249 27.625 53.2595 28.6154 53.2595 29.9904V41.4134Z" fill="#B52BF4" stroke="white" stroke-width="1.92308" stroke-linecap="round" stroke-linejoin="round"/>
<path d="M92.3938 31.8656V43.2887C92.3938 44.8752 91.9132 45.9425 90.942 46.4906L90.6343 46.6444L74.1246 54.8944L71.7113 56.106C72.6824 55.5579 73.1631 54.4906 73.1631 52.904V41.481C73.1631 39.8944 72.6824 38.2694 71.7113 36.5964C70.7401 34.9329 69.567 33.7021 68.1824 32.904L58.2305 27.154C56.9997 26.4329 55.9227 26.2598 55.0189 26.6348L73.942 17.1733C74.9132 16.6156 76.0863 16.7406 77.4613 17.5387L87.4132 23.2887C88.7978 24.0867 89.9709 25.3175 90.942 26.981C91.9132 28.654 92.3938 30.279 92.3938 31.8656Z" fill="#B52BF4" stroke="white" stroke-width="1.92308" stroke-linecap="round" stroke-linejoin="round"/>
<path d="M67.4806 63.8077L67.3939 63.8462L67.4806 63.8077Z" fill="#B52BF4"/>
<path d="M67.4806 63.8077L67.3939 63.8462" stroke="white" stroke-width="1.92308" stroke-linecap="round" stroke-linejoin="round"/>
</svg>
