<svg width="100" height="100" viewBox="0 0 100 100" fill="none" xmlns="http://www.w3.org/2000/svg">
<path d="M70.7166 51.3453C70.4511 50.6462 70.106 49.9382 69.69 49.2214C68.5042 47.1683 67.0706 45.655 65.4069 44.6993L65.0263 44.478L53.0175 37.54L50.221 35.9294V25.4692C50.221 23.5577 49.6281 21.5754 48.4334 19.5223C47.2476 17.4692 45.8139 15.9647 44.1414 15.0001L38.0706 11.4869C36.575 10.6196 35.2741 10.4161 34.1591 10.8763L33.7785 11.0621C32.5927 11.7435 31.9998 13.0355 31.9998 14.9559V25.4072L28.4423 23.3541L16.8139 16.6373C15.3183 15.7701 14.0175 15.5665 12.9024 16.0267L12.5219 16.2125C11.3361 16.894 10.7431 18.186 10.7431 20.1063V58.4338C10.7431 60.3541 11.3361 62.3364 12.5219 64.3895C13.7166 66.4426 15.1414 67.9471 16.8139 68.9117L65.4069 96.9646C67.0706 97.9292 68.5042 98.0796 69.69 97.3982C70.8847 96.7168 71.4777 95.4248 71.4777 93.5044V55.1683C71.4777 53.9205 71.2299 52.6462 70.7166 51.3453ZM28.4423 42.7258C28.5396 42.6373 28.6546 42.5665 28.7697 42.4957C29.6546 41.9913 30.7343 42.0975 31.9998 42.832C33.2653 43.5665 34.3361 44.6904 35.221 46.2214C36.106 47.7435 36.5573 49.2391 36.5573 50.6904C36.5573 51.0532 36.5308 51.3807 36.4688 51.6816C36.3007 52.6019 35.8847 53.2479 35.221 53.6285C34.4865 54.0444 33.6281 54.0355 32.6369 53.6019C32.4334 53.5223 32.221 53.4072 31.9998 53.2833C30.7343 52.5577 29.6546 51.4249 28.7697 49.9028C28.6546 49.6993 28.5396 49.4957 28.4423 49.2922C27.7785 47.9736 27.4423 46.6904 27.4423 45.4338C27.4423 44.1771 27.7785 43.2656 28.4423 42.7258ZM41.106 69.0001L22.8847 58.478V56.9117C22.8847 55.9294 23.1237 55.1506 23.6104 54.5842C24.0883 54.0178 24.7608 53.7524 25.6192 53.7878C26.6369 53.8497 27.6546 54.0444 28.6989 54.3895C29.0706 54.5134 29.4423 54.6462 29.8316 54.8232C29.8936 54.8409 29.9644 54.8674 30.0352 54.9028C30.6635 55.1771 31.3184 55.5134 31.9998 55.9028C33.1591 56.5754 34.2653 57.3364 35.3007 58.2037C36.3361 59.0621 37.3626 60.0444 38.3715 61.1506C38.9378 61.7789 39.4157 62.4338 39.8139 63.124C40.0263 63.4957 40.221 63.8763 40.3892 64.2745C40.867 65.3895 41.106 66.4426 41.106 67.4338V69.0001ZM44.1414 39.3895L38.0706 35.8851V18.4603L44.1414 21.9648V39.3895ZM58.6812 73.1771C58.2564 73.4249 57.7077 73.363 57.0529 72.9825L49.46 68.5931C48.8051 68.2125 48.2564 67.655 47.8316 66.9117C47.398 66.1683 47.1856 65.4249 47.1856 64.6639C47.1856 63.9028 47.398 63.4161 47.8316 63.1683C48.2564 62.9205 48.8051 62.9913 49.46 63.3718L57.0529 67.7524C57.7077 68.1329 58.2564 68.6904 58.6812 69.4338C59.1148 70.1771 59.3272 70.9294 59.3272 71.6816C59.3272 72.4338 59.1148 72.9382 58.6812 73.1771ZM58.6812 62.7258C58.2564 62.9736 57.7077 62.9028 57.0529 62.5223L49.46 58.1417C48.8051 57.7612 48.2564 57.2037 47.8316 56.4603C47.398 55.717 47.1856 54.9648 47.1856 54.2125C47.1856 53.9382 47.2122 53.6993 47.2741 53.4869C47.3715 53.124 47.5573 52.8674 47.8316 52.7081C48.2564 52.4692 48.8051 52.5311 49.46 52.9117L57.0529 57.301C57.7077 57.6816 58.2564 58.2391 58.6812 58.9825C58.7254 59.0621 58.7697 59.1329 58.8051 59.2125C59.1591 59.8763 59.3272 60.5488 59.3272 61.2302C59.3272 61.9825 59.1148 62.478 58.6812 62.7258Z" fill="#FF9D00" stroke="white" stroke-width="1.76991" stroke-linecap="round" stroke-linejoin="round"/>
<path d="M59.3271 61.2302C59.3271 61.9825 59.1147 62.478 58.6811 62.7258C58.2563 62.9736 57.7077 62.9028 57.0528 62.5223L49.4599 58.1417C48.805 57.7612 48.2563 57.2037 47.8316 56.4603C47.3979 55.717 47.1855 54.9648 47.1855 54.2125C47.1855 53.9382 47.2121 53.6993 47.274 53.4869C47.3714 53.124 47.5572 52.8674 47.8316 52.7081C48.2563 52.4692 48.805 52.5311 49.4599 52.9117L57.0528 57.301C57.7077 57.6816 58.2563 58.2391 58.6811 58.9825C58.7254 59.0621 58.7696 59.1329 58.805 59.2125C59.159 59.8763 59.3271 60.5488 59.3271 61.2302Z" fill="#FF9D00" stroke="white" stroke-width="1.76991" stroke-linecap="round" stroke-linejoin="round"/>
<path d="M38.0705 18.4602V35.885L44.1413 39.3894V21.9646L38.0705 18.4602Z" fill="#FF9D00" stroke="white" stroke-width="1.76991" stroke-linecap="round" stroke-linejoin="round"/>
<path d="M59.3271 71.6815C59.3271 72.4337 59.1147 72.9382 58.6811 73.1771C58.2563 73.4249 57.7077 73.363 57.0528 72.9824L49.4599 68.593C48.805 68.2125 48.2563 67.655 47.8316 66.9116C47.3979 66.1683 47.1855 65.4249 47.1855 64.6638C47.1855 63.9028 47.3979 63.416 47.8316 63.1683C48.2563 62.9205 48.805 62.9913 49.4599 63.3718L57.0528 67.7523C57.7077 68.1329 58.2563 68.6904 58.6811 69.4337C59.1147 70.1771 59.3271 70.9293 59.3271 71.6815Z" fill="#FF9D00" stroke="white" stroke-width="1.76991" stroke-linecap="round" stroke-linejoin="round"/>
<path d="M30.0352 54.9027L29.9113 54.9647L22.8847 58.4779V56.9116C22.8847 55.9293 23.1237 55.1505 23.6104 54.5841C24.0883 54.0178 24.7608 53.7523 25.6192 53.7877C26.6369 53.8496 27.6546 54.0443 28.6989 54.3894C29.0706 54.5133 29.4423 54.6461 29.8316 54.8231C29.8936 54.8408 29.9644 54.8673 30.0352 54.9027Z" fill="#FF9D00" stroke="white" stroke-width="1.76991" stroke-linecap="round" stroke-linejoin="round"/>
<path d="M41.106 67.4339V69.0003L22.8847 58.4782L29.9113 54.9649L30.0352 54.903C30.6635 55.1773 31.3184 55.5136 31.9998 55.903C33.1591 56.5755 34.2653 57.3366 35.3007 58.2038C36.3361 59.0622 37.3626 60.0446 38.3715 61.1507C38.9378 61.7791 39.4157 62.4339 39.8139 63.1242C40.0263 63.4959 40.221 63.8764 40.3892 64.2746C40.867 65.3897 41.106 66.4428 41.106 67.4339Z" fill="#FF9D00" stroke="white" stroke-width="1.76991" stroke-linecap="round" stroke-linejoin="round"/>
<path d="M36.5572 50.6904C36.5572 51.0533 36.5307 51.3807 36.4687 51.6816C36.3006 52.6019 35.8846 53.248 35.2208 53.6285C34.4863 54.0444 33.628 54.0356 32.6369 53.6019C32.4333 53.5223 32.2208 53.4072 31.9996 53.2833C30.7341 52.5577 29.6546 51.4249 28.7696 49.9028C28.6546 49.6993 28.5395 49.4957 28.4422 49.2922C27.7785 47.9736 27.4422 46.6904 27.4422 45.4338C27.4422 44.1772 27.7785 43.2656 28.4422 42.7258C28.5395 42.6373 28.6546 42.5665 28.7696 42.4957C29.6546 41.9913 30.7341 42.0975 31.9996 42.832C33.2651 43.5665 34.3359 44.6904 35.2208 46.2214C36.1058 47.7435 36.5572 49.2391 36.5572 50.6904Z" fill="#FF9D00" stroke="white" stroke-width="1.76991" stroke-linecap="round" stroke-linejoin="round"/>
<path d="M89.1767 46.3186V84.6549C89.1767 86.5753 88.5838 87.8673 87.3891 88.5486L69.69 97.3982C70.8847 96.7168 71.4776 95.4248 71.4776 93.5044V55.1682C71.4776 53.9204 71.2297 52.6461 70.7164 51.3452C70.4509 50.6461 70.1059 49.9381 69.69 49.2213C68.5041 47.1682 67.0704 45.6549 65.4067 44.6992L65.0262 44.4779L53.0173 37.5399L50.2209 35.9293L51.4068 35.3363L61.451 30.3187L61.8404 30.124L67.9201 27.0797L83.1058 35.8496C84.7695 36.8054 86.2032 38.3186 87.3891 40.3717C88.5838 42.4248 89.1767 44.4071 89.1767 46.3186Z" fill="#FF9D00" stroke="white" stroke-width="1.76991" stroke-linecap="round" stroke-linejoin="round"/>
<path d="M37.2121 9.34527L34.159 10.8762L33.7785 11.0621C32.5926 11.7435 31.9997 13.0355 31.9997 14.9559V25.4072L28.4422 23.3541L16.8139 16.6373C15.3183 15.77 14.0174 15.5665 12.9024 16.0267L30.2209 7.36296C31.4156 6.68154 32.8404 6.82313 34.513 7.78774L37.2121 9.34527Z" fill="#FF9D00" stroke="white" stroke-width="1.76991" stroke-linecap="round" stroke-linejoin="round"/>
<path d="M44.1415 32.8496L38.0707 35.885L44.1415 32.8496Z" fill="#FF9D00"/>
<path d="M44.1415 32.8496L38.0707 35.885" stroke="white" stroke-width="1.76991" stroke-linecap="round" stroke-linejoin="round"/>
<path d="M67.9202 16.6195V27.0797L61.8405 30.1239L61.4511 30.3186L51.4069 35.3363L50.221 35.9292V25.4691C50.221 23.5576 49.6281 21.5753 48.4334 19.5222C47.2476 17.4691 45.814 15.9646 44.1414 15L38.0706 11.4868C36.575 10.6195 35.2741 10.416 34.1591 10.8761L37.2122 9.34517L51.4777 2.21244C52.6724 1.53103 54.0971 1.67262 55.7697 2.63722L61.8405 6.1505C63.5131 7.1151 64.9467 8.61952 66.1325 10.6726C67.3272 12.7257 67.9202 14.708 67.9202 16.6195Z" fill="#FF9D00" stroke="white" stroke-width="1.76991" stroke-linecap="round" stroke-linejoin="round"/>
</svg>
